<svg width="147" height="91" viewBox="0 0 147 91" fill="none" xmlns="http://www.w3.org/2000/svg">
<path d="M13.3639 64.2286C28.4408 84.5008 44.5657 90.3007 75.4544 89.84C38.6395 58.4109 30.1011 44.1719 17.8548 19.6087C38.765 47.9229 51.8564 62.9457 78.5784 87.6391C88.3952 59.2119 86.2547 45.6362 70.1826 25.2112C51.9409 5.64402 36.1984 0.593676 0.281998 0C-1.00078 31.2475 1.87837 47.0741 13.3639 64.2286Z" fill="#3A6431"/>
<path d="M96.3465 44.0196C87.0367 57.282 85.5205 66.6263 88.1458 86.0383C103.242 63.5243 113.354 53.7926 132.859 39.0174C114.054 57.4244 104.243 68.3555 89.1221 89.84C110.587 92.6778 121.617 91.1288 135.202 75.8338C144.174 63.8762 148.131 47.4023 146.722 22.8102C123.462 23.6647 112.309 28.0526 96.3465 44.0196Z" fill="#3A6431"/>
</svg>
