<svg width="147" height="91" viewBox="0 0 147 91" fill="none" xmlns="http://www.w3.org/2000/svg">
<path d="M133.636 64.2286C118.559 84.5008 102.434 90.3007 71.5456 89.84C108.361 58.4109 116.899 44.1719 129.145 19.6087C108.235 47.9229 95.1436 62.9457 68.4216 87.6391C58.6048 59.2119 60.7453 45.6362 76.8174 25.2112C95.0591 5.64402 110.802 0.593676 146.718 0C148.001 31.2475 145.122 47.0741 133.636 64.2286Z" fill="#3A6431"/>
<path d="M50.6535 44.0196C59.9633 57.282 61.4795 66.6263 58.8542 86.0383C43.7575 63.5243 33.6464 53.7926 14.1412 39.0174C32.9456 57.4244 42.757 68.3555 57.8779 89.84C36.4135 92.6778 25.3834 91.1288 11.7982 75.8338C2.82638 63.8762 -1.13069 47.4023 0.278259 22.8102C23.5379 23.6647 34.6913 28.0526 50.6535 44.0196Z" fill="#3A6431"/>
</svg>
